name rise42.5664peak47.7979fall81.9185.mot
datacolumns 19
datarows 17
range 22.19491000000000 22.22158500000000
endheader
time	ground_force1_vx	ground_force1_vy	ground_force1_vz	ground_force1_px	ground_force1_py	ground_force1_pz	ground_force2_vx	ground_force2_vy	ground_force2_vz	ground_force2_px	ground_force2_py	ground_force2_pz	ground_torque1_x	ground_torque1_y	ground_torque1_z	ground_torque2_x	ground_torque2_y	ground_torque2_z	
22.19491000000000	-39.86842000000000	784.74801100000002	55.08024900000000	0.08166800000000	0.00000000000000	0.11472200000000	0.00000000000000	0.00000000000000	0.00000000000000	0.00000000000000	0.00000000000000	0.00000000000000	0.00000000000000	17.57772600000000	0.00000000000000	0.00000000000000	0.00000000000000	0.00000000000000	
22.19657700000000	-40.33677900000000	783.20194100000003	55.03677500000000	0.08086900000000	0.00000000000000	0.11467200000000	0.00000000000000	0.00000000000000	0.00000000000000	0.00000000000000	0.00000000000000	0.00000000000000	0.00000000000000	17.54882700000000	0.00000000000000	0.00000000000000	0.00000000000000	0.00000000000000	
22.19824500000000	-40.82129500000000	781.59062600000004	54.97900000000000	0.08007000000000	0.00000000000000	0.11462000000000	0.00000000000000	0.00000000000000	0.00000000000000	0.00000000000000	0.00000000000000	0.00000000000000	0.00000000000000	17.52205300000000	0.00000000000000	0.00000000000000	0.00000000000000	0.00000000000000	
22.19992900000000	-41.32198100000000	779.91205500000001	54.90650100000000	0.07927100000000	0.00000000000000	0.11456700000000	-1.17420700000000	3.72794700000000	1.18621200000000	0.00000000000000	0.00000000000000	0.00000000000000	0.00000000000000	17.49747000000000	0.00000000000000	0.00000000000000	0.35932600000000	0.00000000000000	
22.20158100000000	-41.83878900000000	778.16408200000001	54.81887400000000	0.07847200000000	0.00000000000000	0.11451100000000	-1.86479800000000	7.23272600000000	2.02981900000000	0.00000000000000	0.00000000000000	0.00000000000000	0.00000000000000	17.47513200000000	0.00000000000000	0.00000000000000	0.62707100000000	0.00000000000000	
22.20326100000000	-42.37161000000000	776.34442200000001	54.71572900000000	0.07767300000000	0.00000000000000	0.11445200000000	-2.64258700000000	11.47450500000000	3.01187800000000	0.00000000000000	0.00000000000000	0.00000000000000	0.00000000000000	17.45508200000000	0.00000000000000	0.00000000000000	0.94103500000000	0.00000000000000	
22.20492000000000	-42.92026700000000	774.45065499999998	54.59669600000000	0.07687600000000	0.00000000000000	0.11439200000000	-3.48289200000000	16.41036100000000	4.11091700000000	0.00000000000000	0.00000000000000	0.00000000000000	0.00000000000000	17.43735100000000	0.00000000000000	0.00000000000000	1.29504100000000	0.00000000000000	
22.20657700000000	-43.48451800000000	772.48023200000000	54.46142400000000	0.07607900000000	0.00000000000000	0.11433000000000	-4.35510300000000	21.96513900000000	5.29786800000000	0.00000000000000	0.00000000000000	0.00000000000000	0.00000000000000	17.42195500000000	0.00000000000000	0.00000000000000	1.68049000000000	0.00000000000000	
22.20824400000000	-44.06405100000000	770.43047400000000	54.30958000000000	0.07528500000000	0.00000000000000	0.11426500000000	-5.22466100000000	28.03716400000000	6.53799900000000	0.29362600000000	0.00000000000000	-0.06813000000000	0.00000000000000	17.40890000000000	0.00000000000000	0.00000000000000	3.65070100000000	0.00000000000000	
22.20991700000000	-44.65848700000000	768.29858400000001	54.14085500000000	0.07449300000000	0.00000000000000	0.11419800000000	-6.05554500000000	34.50682400000000	7.79349800000000	0.29881300000000	0.00000000000000	-0.06896900000000	0.00000000000000	17.39817500000000	0.00000000000000	0.00000000000000	4.41401900000000	0.00000000000000	
22.21157700000000	-45.26737400000000	766.08164499999998	53.95495800000000	0.07370300000000	0.00000000000000	0.11412900000000	-6.81294200000000	41.24689200000000	9.02638400000000	0.30348200000000	0.00000000000000	-0.06973300000000	0.00000000000000	17.38975600000000	0.00000000000000	0.00000000000000	5.18088600000000	0.00000000000000	
22.21324900000000	-45.89018900000000	763.77663299999995	53.75162300000000	0.07291600000000	0.00000000000000	0.11405900000000	-7.46574500000000	48.13310700000000	10.20133200000000	0.30771200000000	0.00000000000000	-0.07043400000000	0.00000000000000	17.38360500000000	0.00000000000000	0.00000000000000	5.93049900000000	0.00000000000000	
22.21494000000000	-46.52633500000000	761.38042199999995	53.53060800000000	0.07213200000000	0.00000000000000	0.11398600000000	-7.98855900000000	55.05361600000000	11.28805400000000	0.31156500000000	0.00000000000000	-0.07108000000000	0.00000000000000	17.37966700000000	0.00000000000000	0.00000000000000	6.64444900000000	0.00000000000000	
22.21657700000000	-47.17514300000000	758.88978999999995	53.29169300000000	0.07135200000000	0.00000000000000	0.11391100000000	-8.36302300000000	61.91625900000000	12.26300100000000	0.31509200000000	0.00000000000000	-0.07168100000000	0.00000000000000	17.37787400000000	0.00000000000000	0.00000000000000	7.30782600000000	0.00000000000000	
22.21824700000000	-47.83587000000000	756.30143399999997	53.03468500000000	0.07057600000000	0.00000000000000	0.11383400000000	-8.57837700000000	68.65320900000000	13.11026700000000	0.31833500000000	0.00000000000000	-0.07224200000000	0.00000000000000	17.37814000000000	0.00000000000000	0.00000000000000	7.90988100000000	0.00000000000000	
22.21991300000000	-48.50769800000000	753.61197400000003	52.75941700000000	0.06980300000000	0.00000000000000	0.11375500000000	-8.63132900000000	75.22287700000000	13.82173800000000	0.32132900000000	0.00000000000000	-0.07276900000000	0.00000000000000	17.38036400000000	0.00000000000000	0.00000000000000	8.44425300000000	0.00000000000000	
22.22158500000000	-49.18973600000000	750.81796499999996	52.46574700000000	0.06903600000000	0.00000000000000	0.11367400000000	-8.52533400000000	81.60935200000000	14.39657800000000	0.32410300000000	0.00000000000000	-0.07326600000000	0.00000000000000	17.38442700000000	0.00000000000000	0.00000000000000	8.90878600000000	0.00000000000000	
